<svg xmlns="http://www.w3.org/2000/svg" width="1200" height="630" viewBox="0 0 1200 630">
  <rect width="1200" height="630" fill="#E8F5E9"/>
  <circle cx="960" cy="120" r="220" fill="#2E7D32" opacity=".12"/>
  <circle cx="160" cy="520" r="180" fill="#F4B63F" opacity=".25"/>
  <text x="90" y="240" font-family="Arial, sans-serif" font-size="78" font-weight="700" fill="#1B5E20">Premium Harvest</text>
  <text x="95" y="325" font-family="Arial, sans-serif" font-size="46" fill="#2E7D32">Premium Organic Mangoes</text>
  <path d="M800 420c96-15 166-91 166-178 0-55-35-94-86-94-43 0-70 25-80 37-10-12-37-37-80-37-51 0-86 39-86 94 0 87 70 163 166 178z" fill="#F4B63F"/>
  <path d="M802 168c28-89 96-124 187-112-35 83-95 124-187 112z" fill="#2E7D32"/>
</svg>
